<svg xmlns="http://www.w3.org/2000/svg" width="1200" height="900" viewBox="0 0 1200 900" fill="none">
  <rect width="1200" height="900" fill="#020617"/>
  <rect x="40" y="40" width="1120" height="820" rx="36" fill="url(#bg)" fill-opacity="0.14" stroke="#22D3EE" stroke-opacity="0.25"/>
  <circle cx="190" cy="140" r="90" fill="#22D3EE" fill-opacity="0.12"/>
  <circle cx="1000" cy="180" r="120" fill="#C084FC" fill-opacity="0.10"/>
  <circle cx="1020" cy="710" r="140" fill="#22C55E" fill-opacity="0.08"/>
  <text x="600" y="140" text-anchor="middle" fill="#E2E8F0" font-family="Orbitron, Arial, sans-serif" font-size="56" font-weight="800" letter-spacing="10">WORLD GAMING HQ</text>
  <text x="600" y="200" text-anchor="middle" fill="#22D3EE" font-family="Rajdhani, Arial, sans-serif" font-size="28" font-weight="700" letter-spacing="6">PRINT PROTOCOL BREACHED</text>
  <g transform="translate(260 260)">
    <rect x="170" y="150" width="340" height="110" rx="28" fill="#111827" stroke="#F59E0B" stroke-width="8"/>
    <rect x="205" y="178" width="270" height="54" rx="18" fill="#7C2D12"/>
    <circle cx="220" cy="320" r="26" fill="#CBD5E1"/>
    <circle cx="455" cy="320" r="26" fill="#CBD5E1"/>
    <g fill="#0F172A">
      <circle cx="90" cy="118" r="36"/>
      <rect x="72" y="154" width="36" height="110" rx="18"/>
      <rect x="28" y="178" width="52" height="20" rx="10" transform="rotate(-18 28 178)"/>
      <rect x="104" y="176" width="52" height="20" rx="10" transform="rotate(18 104 176)"/>
      <rect x="62" y="260" width="20" height="92" rx="10" transform="rotate(10 62 260)"/>
      <rect x="100" y="258" width="20" height="92" rx="10" transform="rotate(-10 100 258)"/>
    </g>
    <g fill="#0F172A">
      <circle cx="590" cy="118" r="36"/>
      <rect x="572" y="154" width="36" height="110" rx="18"/>
      <rect x="528" y="176" width="52" height="20" rx="10" transform="rotate(-18 528 176)"/>
      <rect x="604" y="178" width="52" height="20" rx="10" transform="rotate(18 604 178)"/>
      <rect x="562" y="258" width="20" height="92" rx="10" transform="rotate(10 562 258)"/>
      <rect x="600" y="260" width="20" height="92" rx="10" transform="rotate(-10 600 260)"/>
    </g>
    <g fill="#1E293B">
      <circle cx="160" cy="92" r="28"/>
      <circle cx="520" cy="92" r="28"/>
      <circle cx="265" cy="84" r="30"/>
      <circle cx="415" cy="84" r="30"/>
      <rect x="144" y="118" width="32" height="96" rx="16"/>
      <rect x="504" y="118" width="32" height="96" rx="16"/>
      <rect x="248" y="114" width="34" height="104" rx="17"/>
      <rect x="398" y="114" width="34" height="104" rx="17"/>
      <rect x="128" y="180" width="42" height="18" rx="9" transform="rotate(-18 128 180)"/>
      <rect x="530" y="176" width="42" height="18" rx="9" transform="rotate(18 530 176)"/>
      <rect x="228" y="170" width="42" height="18" rx="9" transform="rotate(-12 228 170)"/>
      <rect x="412" y="170" width="42" height="18" rx="9" transform="rotate(12 412 170)"/>
      <rect x="146" y="212" width="16" height="74" rx="8" transform="rotate(12 146 212)"/>
      <rect x="518" y="212" width="16" height="74" rx="8" transform="rotate(-12 518 212)"/>
      <rect x="256" y="214" width="16" height="76" rx="8" transform="rotate(8 256 214)"/>
      <rect x="408" y="214" width="16" height="76" rx="8" transform="rotate(-8 408 214)"/>
    </g>
    <path d="M36 420C130 382 224 382 318 420" stroke="#22D3EE" stroke-width="8" stroke-linecap="round" stroke-dasharray="12 16"/>
    <path d="M332 420C426 382 520 382 614 420" stroke="#C084FC" stroke-width="8" stroke-linecap="round" stroke-dasharray="12 16"/>
  </g>
  <text x="600" y="725" text-anchor="middle" fill="#F8FAFC" font-family="Rajdhani, Arial, sans-serif" font-size="42" font-weight="700">No imprimas los secretos del gran QG.</text>
  <text x="600" y="776" text-anchor="middle" fill="#CBD5E1" font-family="Rajdhani, Arial, sans-serif" font-size="28" font-weight="600">Los guardianes del loot ya activaron el protocolo ceremonial anti-fugas.</text>
  <defs>
    <linearGradient id="bg" x1="40" y1="40" x2="1160" y2="860" gradientUnits="userSpaceOnUse">
      <stop stop-color="#22D3EE"/>
      <stop offset="0.48" stop-color="#C084FC"/>
      <stop offset="1" stop-color="#22C55E"/>
    </linearGradient>
  </defs>
</svg>